<svg width="23" height="27" viewBox="0 0 23 27" fill="none" xmlns="http://www.w3.org/2000/svg">
<path d="M20.3057 0H2.69429C1.20914 0 0 1.242 0 2.781V21.033C0 22.572 1.20914 23.814 2.69429 23.814H17.5983L16.9017 21.3165L18.584 22.923L20.1743 24.435L23 27V2.781C23 1.242 21.7909 0 20.3057 0ZM15.2326 17.631C15.2326 17.631 14.7594 17.0505 14.3651 16.5375C16.0869 16.038 16.744 14.931 16.744 14.931C16.2051 15.2955 15.6926 15.552 15.2326 15.7275C14.5754 16.011 13.9446 16.2 13.3269 16.308C12.0651 16.551 10.9086 16.4835 9.92286 16.2945C9.17371 16.146 8.52971 15.93 7.99086 15.714C7.68857 15.5925 7.36 15.444 7.03143 15.255C6.992 15.228 6.95257 15.2145 6.91314 15.1875C6.88686 15.174 6.87371 15.1605 6.86057 15.147C6.624 15.012 6.49257 14.9175 6.49257 14.9175C6.49257 14.9175 7.12343 15.9975 8.79257 16.5105C8.39829 17.0235 7.912 17.631 7.912 17.631C5.00743 17.5365 3.90343 15.579 3.90343 15.579C3.90343 11.232 5.796 7.7085 5.796 7.7085C7.68857 6.2505 9.48914 6.291 9.48914 6.291L9.62057 6.453C7.25486 7.155 6.164 8.2215 6.164 8.2215C6.164 8.2215 6.45314 8.0595 6.93943 7.83C8.34571 7.1955 9.46286 7.02 9.92286 6.9795C10.0017 6.966 10.0674 6.9525 10.1463 6.9525C10.948 6.8445 11.8549 6.8175 12.8011 6.9255C14.0497 7.074 15.3903 7.452 16.7571 8.2215C16.7571 8.2215 15.7189 7.209 13.4846 6.507L13.6686 6.291C13.6686 6.291 15.4691 6.2505 17.3617 7.7085C17.3617 7.7085 19.2543 11.232 19.2543 15.579C19.2543 15.579 18.1371 17.5365 15.2326 17.631ZM9.12114 11.3265C8.372 11.3265 7.78057 12.0015 7.78057 12.825C7.78057 13.6485 8.38514 14.3235 9.12114 14.3235C9.87029 14.3235 10.4617 13.6485 10.4617 12.825C10.4749 12.0015 9.87029 11.3265 9.12114 11.3265ZM13.9183 11.3265C13.1691 11.3265 12.5777 12.0015 12.5777 12.825C12.5777 13.6485 13.1823 14.3235 13.9183 14.3235C14.6674 14.3235 15.2589 13.6485 15.2589 12.825C15.2589 12.0015 14.6674 11.3265 13.9183 11.3265Z" fill="#7289DA"/>
</svg>
