<svg width="23" height="27" viewBox="0 0 23 27" fill="none" xmlns="http://www.w3.org/2000/svg">
<path d="M11.5 2.25C8.95833 2.25 6.52077 3.43526 4.72355 5.54505C2.92633 7.65483 1.91666 10.5163 1.91666 13.5C1.91666 16.4837 2.92633 19.3452 4.72355 21.455C6.52077 23.5647 8.95833 24.75 11.5 24.75C14.0416 24.75 16.4792 23.5647 18.2764 21.455C20.0737 19.3452 21.0833 16.4837 21.0833 13.5C21.0833 10.5163 20.0737 7.65483 18.2764 5.54505C16.4792 3.43526 14.0416 2.25 11.5 2.25V2.25Z" fill="#7289DA"/>
<path d="M16.2677 8.4375L14.4727 19.1959C14.4727 19.1959 14.3956 19.6875 13.8762 19.6875C13.6002 19.6875 13.4579 19.5334 13.4579 19.5334L9.56991 15.7461L7.66762 14.6205L5.22626 13.8583C5.22626 13.8583 4.79166 13.7109 4.79166 13.2891C4.79166 12.9375 5.23872 12.7699 5.23872 12.7699L15.4526 8.00663C15.4522 8.00606 15.7646 7.87444 15.9922 7.875C16.1321 7.875 16.2917 7.94531 16.2917 8.15625C16.2917 8.29688 16.2677 8.4375 16.2677 8.4375Z" fill="white"/>
<path d="M11.0208 17.1591L9.3792 19.0569C9.3792 19.0569 9.3078 19.1216 9.21245 19.1244C9.17939 19.1256 9.14393 19.1194 9.10751 19.1002L9.56943 15.7449L11.0208 17.1591Z" fill="#B0BEC5"/>
<path d="M14.3256 10.2353C14.2447 10.1115 14.0952 10.089 13.9897 10.1829L7.66666 14.625C7.66666 14.625 8.67578 17.9393 8.82959 18.513C8.98389 19.0873 9.10751 19.1008 9.10751 19.1008L9.56943 15.7455L14.2806 10.629C14.386 10.5351 14.4057 10.359 14.3256 10.2353Z" fill="#CFD8DC"/>
</svg>
