<svg width="23" height="23" viewBox="0 0 23 23" fill="none" xmlns="http://www.w3.org/2000/svg">
<path d="M23 2.72197C22.1521 3.18519 21.2433 3.49621 20.2879 3.63738C21.263 2.91829 22.0123 1.78009 22.3636 0.425722C21.453 1.08967 20.4403 1.57274 19.3665 1.83303C18.5061 0.703654 17.28 0 15.9231 0C13.3167 0 11.2033 2.59845 11.2033 5.8057C11.2033 6.26009 11.2464 6.70346 11.327 7.12918C7.40496 6.88655 3.92923 4.57485 1.60073 1.061C1.19383 1.92126 0.962591 2.91829 0.962591 3.98149C0.962591 5.9954 1.79433 7.77328 3.06165 8.81663C2.28727 8.78575 1.5595 8.52326 0.923155 8.08871C0.923155 8.11298 0.923155 8.13724 0.923155 8.1615C0.923155 10.9761 2.55078 13.3209 4.70719 13.8569C4.31284 13.9893 3.89518 14.0598 3.46497 14.0598C3.16024 14.0598 2.86447 14.0246 2.57587 13.954C3.17816 16.259 4.92051 17.9421 6.98371 17.9884C5.37043 19.5457 3.33591 20.4721 1.12392 20.4721C0.742109 20.4721 0.36747 20.4457 0 20.3905C2.08651 22.0405 4.56738 23 7.23287 23C15.9123 23 20.659 14.1525 20.659 6.48068C20.659 6.22921 20.6536 5.97554 20.6464 5.72849C21.5678 4.91014 22.3672 3.88664 23 2.72197Z" fill="#7289DA"/>
</svg>
