<svg width="310" height="387" viewBox="0 0 310 387" fill="none" xmlns="http://www.w3.org/2000/svg">
<g filter="url(#filter0_dddd_54:21)">
<rect x="32" y="8" width="246" height="323" rx="54" fill="#FFFBFB"/>
</g>
<g filter="url(#filter1_ddd_54:21)">
<path d="M96.158 260V242.996H106.402V245.544H99.174V249.886H105.284V252.434H99.174V257.452H106.662V260H96.158ZM109.888 260V247.234H112.358L112.566 248.95H112.67C113.242 248.395 113.858 247.919 114.516 247.52C115.192 247.121 115.972 246.922 116.856 246.922C118.226 246.922 119.222 247.364 119.846 248.248C120.47 249.115 120.782 250.363 120.782 251.992V260H117.792V252.382C117.792 251.325 117.636 250.579 117.324 250.146C117.012 249.713 116.501 249.496 115.79 249.496C115.236 249.496 114.742 249.635 114.308 249.912C113.892 250.172 113.416 250.562 112.878 251.082V260H109.888ZM123.423 265.356C122.955 265.356 122.556 265.321 122.227 265.252C121.88 265.183 121.586 265.105 121.343 265.018L121.915 262.782C122.088 262.834 122.27 262.877 122.461 262.912C122.634 262.964 122.816 262.99 123.007 262.99C123.579 262.99 123.96 262.791 124.151 262.392C124.359 262.011 124.463 261.447 124.463 260.702V247.234H127.479V260.65C127.479 261.326 127.41 261.95 127.271 262.522C127.132 263.094 126.898 263.588 126.569 264.004C126.257 264.437 125.841 264.767 125.321 264.992C124.801 265.235 124.168 265.356 123.423 265.356ZM125.971 244.998C125.451 244.998 125.009 244.842 124.645 244.53C124.298 244.218 124.125 243.811 124.125 243.308C124.125 242.805 124.298 242.398 124.645 242.086C125.009 241.757 125.451 241.592 125.971 241.592C126.508 241.592 126.95 241.757 127.297 242.086C127.661 242.398 127.843 242.805 127.843 243.308C127.843 243.811 127.661 244.218 127.297 244.53C126.95 244.842 126.508 244.998 125.971 244.998ZM131.267 260V247.234H134.257V260H131.267ZM132.775 244.998C132.238 244.998 131.796 244.842 131.449 244.53C131.102 244.218 130.929 243.811 130.929 243.308C130.929 242.805 131.102 242.398 131.449 242.086C131.796 241.757 132.238 241.592 132.775 241.592C133.312 241.592 133.754 241.757 134.101 242.086C134.448 242.398 134.621 242.805 134.621 243.308C134.621 243.811 134.448 244.218 134.101 244.53C133.754 244.842 133.312 244.998 132.775 244.998ZM138.072 260V247.234H140.542L140.75 248.95H140.854C141.426 248.395 142.041 247.919 142.7 247.52C143.376 247.121 144.156 246.922 145.04 246.922C146.409 246.922 147.406 247.364 148.03 248.248C148.654 249.115 148.966 250.363 148.966 251.992V260H145.976V252.382C145.976 251.325 145.82 250.579 145.508 250.146C145.196 249.713 144.684 249.496 143.974 249.496C143.419 249.496 142.925 249.635 142.492 249.912C142.076 250.172 141.599 250.562 141.062 251.082V260H138.072ZM159.776 260L156.396 242.996H159.49L160.972 251.576C161.11 252.495 161.249 253.405 161.388 254.306C161.526 255.207 161.665 256.109 161.804 257.01H161.908C162.098 256.109 162.28 255.207 162.454 254.306C162.644 253.387 162.835 252.477 163.026 251.576L165.106 242.996H167.732L169.812 251.576C170.002 252.46 170.193 253.361 170.384 254.28C170.574 255.181 170.765 256.091 170.956 257.01H171.06C171.198 256.091 171.328 255.181 171.45 254.28C171.588 253.379 171.727 252.477 171.866 251.576L173.348 242.996H176.234L172.984 260H169.24L167.134 251.056C166.995 250.397 166.856 249.747 166.718 249.106C166.596 248.447 166.484 247.789 166.38 247.13H166.276C166.154 247.789 166.024 248.447 165.886 249.106C165.764 249.747 165.634 250.397 165.496 251.056L163.442 260H159.776ZM181.359 260.312C180.233 260.312 179.323 259.974 178.629 259.298C177.936 258.605 177.589 257.695 177.589 256.568C177.589 255.892 177.728 255.294 178.005 254.774C178.3 254.237 178.751 253.777 179.357 253.396C179.981 253.015 180.761 252.694 181.697 252.434C182.651 252.174 183.786 251.975 185.103 251.836C185.086 251.507 185.034 251.195 184.947 250.9C184.878 250.588 184.748 250.319 184.557 250.094C184.384 249.851 184.15 249.669 183.855 249.548C183.561 249.409 183.197 249.34 182.763 249.34C182.139 249.34 181.524 249.461 180.917 249.704C180.328 249.947 179.747 250.241 179.175 250.588L178.083 248.586C178.794 248.135 179.591 247.745 180.475 247.416C181.359 247.087 182.313 246.922 183.335 246.922C184.93 246.922 186.117 247.399 186.897 248.352C187.695 249.288 188.093 250.649 188.093 252.434V260H185.623L185.415 258.596H185.311C184.739 259.081 184.124 259.489 183.465 259.818C182.824 260.147 182.122 260.312 181.359 260.312ZM182.321 257.972C182.841 257.972 183.309 257.851 183.725 257.608C184.159 257.365 184.618 257.019 185.103 256.568V253.708C184.237 253.812 183.509 253.951 182.919 254.124C182.33 254.297 181.853 254.497 181.489 254.722C181.125 254.93 180.865 255.173 180.709 255.45C180.553 255.727 180.475 256.022 180.475 256.334C180.475 256.906 180.649 257.322 180.995 257.582C181.342 257.842 181.784 257.972 182.321 257.972ZM194.583 260.312C193.509 260.312 192.755 259.991 192.321 259.35C191.888 258.709 191.671 257.833 191.671 256.724V241.644H194.661V256.88C194.661 257.244 194.731 257.504 194.869 257.66C195.008 257.799 195.155 257.868 195.311 257.868C195.381 257.868 195.441 257.868 195.493 257.868C195.563 257.868 195.658 257.851 195.779 257.816L196.169 260.052C195.771 260.225 195.242 260.312 194.583 260.312ZM201.642 260.312C200.567 260.312 199.813 259.991 199.38 259.35C198.947 258.709 198.73 257.833 198.73 256.724V241.644H201.72V256.88C201.72 257.244 201.789 257.504 201.928 257.66C202.067 257.799 202.214 257.868 202.37 257.868C202.439 257.868 202.5 257.868 202.552 257.868C202.621 257.868 202.717 257.851 202.838 257.816L203.228 260.052C202.829 260.225 202.301 260.312 201.642 260.312ZM211.249 260.312C210.365 260.312 209.541 260.165 208.779 259.87C208.016 259.558 207.349 259.116 206.777 258.544C206.205 257.972 205.754 257.279 205.425 256.464C205.113 255.632 204.957 254.687 204.957 253.63C204.957 252.59 205.121 251.654 205.451 250.822C205.78 249.99 206.213 249.288 206.751 248.716C207.305 248.144 207.938 247.702 208.649 247.39C209.359 247.078 210.087 246.922 210.833 246.922C211.699 246.922 212.462 247.069 213.121 247.364C213.779 247.659 214.325 248.075 214.759 248.612C215.209 249.149 215.547 249.791 215.773 250.536C215.998 251.281 216.111 252.096 216.111 252.98C216.111 253.275 216.093 253.552 216.059 253.812C216.041 254.072 216.015 254.28 215.981 254.436H207.869C208.007 255.58 208.406 256.464 209.065 257.088C209.741 257.695 210.599 257.998 211.639 257.998C212.193 257.998 212.705 257.92 213.173 257.764C213.658 257.591 214.135 257.357 214.603 257.062L215.617 258.934C215.01 259.333 214.334 259.662 213.589 259.922C212.843 260.182 212.063 260.312 211.249 260.312ZM207.843 252.408H213.511C213.511 251.42 213.294 250.649 212.861 250.094C212.445 249.522 211.795 249.236 210.911 249.236C210.148 249.236 209.481 249.505 208.909 250.042C208.337 250.579 207.981 251.368 207.843 252.408ZM223.21 260.312C222.465 260.312 221.832 260.199 221.312 259.974C220.81 259.749 220.394 259.437 220.064 259.038C219.752 258.622 219.518 258.137 219.362 257.582C219.224 257.01 219.154 256.377 219.154 255.684V249.6H217.334V247.364L219.31 247.234L219.674 243.75H222.17V247.234H225.42V249.6H222.17V255.684C222.17 257.175 222.768 257.92 223.964 257.92C224.19 257.92 224.415 257.894 224.64 257.842C224.883 257.79 225.1 257.721 225.29 257.634L225.81 259.844C225.464 259.965 225.065 260.069 224.614 260.156C224.181 260.26 223.713 260.312 223.21 260.312Z" fill="black"/>
</g>
<defs>
<filter id="filter0_dddd_54:21" x="0" y="0" width="310" height="387" filterUnits="userSpaceOnUse" color-interpolation-filters="sRGB">
<feFlood flood-opacity="0" result="BackgroundImageFix"/>
<feColorMatrix in="SourceAlpha" type="matrix" values="0 0 0 0 0 0 0 0 0 0 0 0 0 0 0 0 0 0 127 0" result="hardAlpha"/>
<feOffset/>
<feGaussianBlur stdDeviation="0.5"/>
<feColorMatrix type="matrix" values="0 0 0 0 0 0 0 0 0 0 0 0 0 0 0 0 0 0 0.04 0"/>
<feBlend mode="normal" in2="BackgroundImageFix" result="effect1_dropShadow_54:21"/>
<feColorMatrix in="SourceAlpha" type="matrix" values="0 0 0 0 0 0 0 0 0 0 0 0 0 0 0 0 0 0 127 0" result="hardAlpha"/>
<feOffset dy="4"/>
<feGaussianBlur stdDeviation="4"/>
<feColorMatrix type="matrix" values="0 0 0 0 0 0 0 0 0 0 0 0 0 0 0 0 0 0 0.04 0"/>
<feBlend mode="normal" in2="effect1_dropShadow_54:21" result="effect2_dropShadow_54:21"/>
<feColorMatrix in="SourceAlpha" type="matrix" values="0 0 0 0 0 0 0 0 0 0 0 0 0 0 0 0 0 0 127 0" result="hardAlpha"/>
<feOffset dy="16"/>
<feGaussianBlur stdDeviation="12"/>
<feColorMatrix type="matrix" values="0 0 0 0 0 0 0 0 0 0 0 0 0 0 0 0 0 0 0.04 0"/>
<feBlend mode="normal" in2="effect2_dropShadow_54:21" result="effect3_dropShadow_54:21"/>
<feColorMatrix in="SourceAlpha" type="matrix" values="0 0 0 0 0 0 0 0 0 0 0 0 0 0 0 0 0 0 127 0" result="hardAlpha"/>
<feOffset dy="24"/>
<feGaussianBlur stdDeviation="16"/>
<feColorMatrix type="matrix" values="0 0 0 0 0 0 0 0 0 0 0 0 0 0 0 0 0 0 0.04 0"/>
<feBlend mode="normal" in2="effect3_dropShadow_54:21" result="effect4_dropShadow_54:21"/>
<feBlend mode="normal" in="SourceGraphic" in2="effect4_dropShadow_54:21" result="shape"/>
</filter>
<filter id="filter1_ddd_54:21" x="88.1582" y="237.592" width="145.652" height="39.7639" filterUnits="userSpaceOnUse" color-interpolation-filters="sRGB">
<feFlood flood-opacity="0" result="BackgroundImageFix"/>
<feColorMatrix in="SourceAlpha" type="matrix" values="0 0 0 0 0 0 0 0 0 0 0 0 0 0 0 0 0 0 127 0" result="hardAlpha"/>
<feOffset/>
<feGaussianBlur stdDeviation="0.5"/>
<feColorMatrix type="matrix" values="0 0 0 0 0 0 0 0 0 0 0 0 0 0 0 0 0 0 0.04 0"/>
<feBlend mode="normal" in2="BackgroundImageFix" result="effect1_dropShadow_54:21"/>
<feColorMatrix in="SourceAlpha" type="matrix" values="0 0 0 0 0 0 0 0 0 0 0 0 0 0 0 0 0 0 127 0" result="hardAlpha"/>
<feOffset/>
<feGaussianBlur stdDeviation="1"/>
<feColorMatrix type="matrix" values="0 0 0 0 0 0 0 0 0 0 0 0 0 0 0 0 0 0 0.06 0"/>
<feBlend mode="normal" in2="effect1_dropShadow_54:21" result="effect2_dropShadow_54:21"/>
<feColorMatrix in="SourceAlpha" type="matrix" values="0 0 0 0 0 0 0 0 0 0 0 0 0 0 0 0 0 0 127 0" result="hardAlpha"/>
<feOffset dy="4"/>
<feGaussianBlur stdDeviation="4"/>
<feColorMatrix type="matrix" values="0 0 0 0 0 0 0 0 0 0 0 0 0 0 0 0 0 0 0.04 0"/>
<feBlend mode="normal" in2="effect2_dropShadow_54:21" result="effect3_dropShadow_54:21"/>
<feBlend mode="normal" in="SourceGraphic" in2="effect3_dropShadow_54:21" result="shape"/>
</filter>
</defs>
</svg>
